<svg version="1.1" preserveAspectRatio="none" xmlns="http://www.w3.org/2000/svg" width="500" height="500" viewBox="0 0 500 500"><rect width="100%" height="100%" fill="#E74C32" fill-opacity="1"/><svg viewBox="65.7553 534.9425 514.645 402.6377" width="333" height="260.5259044584131" x="83.5px" y="119.737px" xmlns="http://www.w3.org/2000/svg" xmlns:xlink="http://www.w3.org/1999/xlink" preserveAspectRatio="none"><defs></defs><style>.companyName {fill:#EFEFEF;fill-opacity:1;}.icon1 {fill:#281817;fill-opacity:1;}.icon2 {fill:#EFEFEF;fill-opacity:1;}.icon3 {fill:#DDAC77;fill-opacity:1;}.icon3-str {stroke:#DDAC77;stroke-opacity:1;}.text {fill:#EFEFEF;fill-opacity:1;}</style><g opacity="1" transform="rotate(0 65.7553 913.5802)">
<svg width="514.645" height="24" x="65.7553" y="913.5802" version="1.1" preserveAspectRatio="none" viewBox="3.24 -28 770.12 35.92">
  <g transform="matrix(1 0 0 1 0 0)" class="text"><path id="id-6izo4zJp34" d="M23.48-19.48L23.48-19.48Q23.48-15.12 19.92-13.52L19.92-13.52Q23.20-12.44 24.40-9.56L24.40-9.56Q24.84-8.44 24.84-6.96L24.84-6.96Q24.84-2.16 19.76-0.56L19.76-0.56Q18.08 0 15.80 0L15.80 0L3.24 0L3.24-26.48L15.12-26.48Q19.40-26.48 21.64-24.16L21.64-24.16Q23.48-22.32 23.48-19.48ZM6.24-23.64L6.24-14.64L15.12-14.64Q18.80-14.64 20.04-17.16L20.04-17.16Q20.48-18.04 20.48-19.06Q20.48-20.08 20.20-20.86Q19.92-21.64 19.32-22.24L19.32-22.24Q18-23.64 15.44-23.64L15.44-23.64L6.24-23.64ZM6.24-2.84L16.12-2.84Q18.88-2.84 20.36-3.98Q21.84-5.12 21.84-7.20L21.84-7.20Q21.84-9.20 20.40-10.48L20.40-10.48Q18.80-11.92 15.80-11.92L15.80-11.92L6.24-11.92L6.24-2.84Z M49.48 0L46.48 0L46.48-3.12Q45.40-1.68 43.84-0.68Q42.28 0.32 40.28 0.32Q38.28 0.32 36.84-0.24Q35.40-0.80 34.32-1.92L34.32-1.92Q31.84-4.36 31.84-8.36L31.84-8.36L31.84-20L34.84-20L34.84-8.44Q34.84-5.68 36.40-4.04Q37.96-2.40 40.44-2.40L40.44-2.40Q42.96-2.40 44.72-4.08L44.72-4.08Q46.48-5.80 46.48-8.48L46.48-8.48L46.48-20L49.48-20L49.48 0Z M75.04-20L63.20 7.92L59.96 7.92L63.60-0.28L55.44-20L58.76-20L65.20-3.60L71.76-20L75.04-20Z M101.36-20.32L101.36-20.32Q105.84-20.32 108.64-17.32L108.64-17.32Q111.28-14.44 111.28-10L111.28-10Q111.28-5.56 108.64-2.68L108.64-2.68Q105.84 0.32 101.36 0.32L101.36 0.32Q96.88 0.32 94.08-2.68L94.08-2.68Q91.44-5.56 91.44-10L91.44-10Q91.44-14.44 94.08-17.32L94.08-17.32Q96.88-20.32 101.36-20.32ZM101.36-2.40L101.36-2.40Q104.60-2.40 106.48-4.64L106.48-4.64Q108.28-6.76 108.28-10L108.28-10Q108.28-13.24 106.48-15.36L106.48-15.36Q104.60-17.60 101.36-17.60L101.36-17.60Q98.12-17.60 96.24-15.36L96.24-15.36Q94.44-13.24 94.44-10L94.44-10Q94.44-6.76 96.24-4.64L96.24-4.64Q98.12-2.40 101.36-2.40Z M128.80-20.32L129-20.32L129-17.32L128.64-17.32Q125.40-17.32 123.36-14.72L123.36-14.72Q121.44-12.24 121.44-8.80L121.44-8.80L121.44 0L118.44 0L118.44-20L121.44-20L121.44-15.08Q122.40-18.20 125.60-19.68L125.60-19.68Q126.92-20.32 128.80-20.32L128.80-20.32Z M150.80-10.16L150.80 0L147.80 0L147.80-26.48L160.48-26.48Q164.52-26.48 166.96-24.24L166.96-24.24Q169.40-22.04 169.40-18.20L169.40-18.20Q169.40-13.24 165.28-11.44L165.28-11.44Q164.12-10.92 163-10.68L163-10.68L169.96 0L166.40 0L160-10.16L150.80-10.16ZM150.80-23.64L150.80-13L159.96-13Q164.20-13 165.80-15.64L165.80-15.64Q166.40-16.64 166.40-18.20L166.40-18.20Q166.40-20.72 164.68-22.18Q162.96-23.64 160.12-23.64L160.12-23.64L150.80-23.64Z M185.56-2.40L185.56-2.40Q189.60-2.40 191.36-5.76L191.36-5.76L194.64-5.76Q193.60-3.04 191.34-1.36Q189.08 0.32 185.52 0.32L185.52 0.32Q181 0.32 178.16-2.68L178.16-2.68Q175.40-5.60 175.40-10L175.40-10Q175.40-14.44 178.04-17.32L178.04-17.32Q180.84-20.32 185.32-20.32L185.32-20.32Q189.80-20.32 192.60-17.32L192.60-17.32Q195.24-14.44 195.24-10L195.24-10L195.24-8.80L178.48-8.80Q178.80-6.04 180.68-4.24L180.68-4.24Q182.60-2.40 185.56-2.40ZM185.32-17.60L185.32-17.60Q182.56-17.60 180.68-15.88L180.68-15.88Q178.92-14.24 178.52-11.60L178.52-11.60L192.12-11.60Q191.72-14.24 189.96-15.88L189.96-15.88Q188.08-17.60 185.32-17.60Z M202.12-20L205.12-20L205.12-16.88Q206.20-18.32 207.76-19.32Q209.32-20.32 211.32-20.32Q213.32-20.32 214.76-19.76Q216.20-19.20 217.28-18.08L217.28-18.08Q219.76-15.64 219.76-11.64L219.76-11.64L219.76 0L216.76 0L216.76-11.56Q216.76-14.32 215.20-15.96Q213.64-17.60 211.16-17.60L211.16-17.60Q208.64-17.60 206.88-15.92L206.88-15.92Q205.12-14.20 205.12-11.52L205.12-11.52L205.12 0L202.12 0L202.12-20Z M232.64 0L229.64 0L229.64-17.36L225.56-17.36L225.56-20L229.64-20L229.64-27.16L232.64-27.16L232.64-20L237.24-20L237.24-17.36L232.64-17.36L232.64 0Z M272.60-20L260.76 7.92L257.52 7.92L261.16-0.28L253.00-20L256.32-20L262.76-3.60L269.32-20L272.60-20Z M286.88-20.32L286.88-20.32Q291.36-20.32 294.16-17.32L294.16-17.32Q296.80-14.44 296.80-10L296.80-10Q296.80-5.56 294.16-2.68L294.16-2.68Q291.36 0.32 286.88 0.32L286.88 0.32Q282.40 0.32 279.60-2.68L279.60-2.68Q276.96-5.56 276.96-10L276.96-10Q276.96-14.44 279.60-17.32L279.60-17.32Q282.40-20.32 286.88-20.32ZM286.88-2.40L286.88-2.40Q290.12-2.40 292.00-4.64L292.00-4.64Q293.80-6.76 293.80-10L293.80-10Q293.80-13.24 292.00-15.36L292.00-15.36Q290.12-17.60 286.88-17.60L286.88-17.60Q283.64-17.60 281.76-15.36L281.76-15.36Q279.96-13.24 279.96-10L279.96-10Q279.96-6.76 281.76-4.64L281.76-4.64Q283.64-2.40 286.88-2.40Z M321.40 0L318.40 0L318.40-3.12Q317.32-1.68 315.76-0.68Q314.20 0.32 312.20 0.32Q310.20 0.32 308.76-0.24Q307.32-0.80 306.24-1.92L306.24-1.92Q303.76-4.36 303.76-8.36L303.76-8.36L303.76-20L306.76-20L306.76-8.44Q306.76-5.68 308.32-4.04Q309.88-2.40 312.36-2.40L312.36-2.40Q314.88-2.40 316.64-4.08L316.64-4.08Q318.40-5.80 318.40-8.48L318.40-8.48L318.40-20L321.40-20L321.40 0Z M340.16-20.32L340.36-20.32L340.36-17.32L340.00-17.32Q336.76-17.32 334.72-14.72L334.72-14.72Q332.80-12.24 332.80-8.80L332.80-8.80L332.80 0L329.80 0L329.80-20L332.80-20L332.80-15.08Q333.76-18.20 336.96-19.68L336.96-19.68Q338.28-20.32 340.16-20.32L340.16-20.32Z M359.16-26.48L370.32-26.48Q372.68-26.48 374.88-25.58Q377.08-24.68 378.76-22.96L378.76-22.96Q382.48-19.16 382.48-13.24L382.48-13.24Q382.48-7.32 378.76-3.52L378.76-3.52Q377.08-1.80 374.88-0.90Q372.68 0 370.32 0L370.32 0L359.16 0L359.16-26.48ZM362.16-2.84L370.20-2.84Q374.36-2.84 376.96-5.92L376.96-5.92Q379.48-8.88 379.48-13.24L379.48-13.24Q379.48-17.60 376.96-20.56L376.96-20.56Q374.36-23.64 370.20-23.64L370.20-23.64L362.16-23.64L362.16-2.84Z M393.52-10.16L393.52 0L390.52 0L390.52-26.48L403.20-26.48Q407.24-26.48 409.68-24.24L409.68-24.24Q412.12-22.04 412.12-18.20L412.12-18.20Q412.12-13.24 408.00-11.44L408.00-11.44Q406.84-10.92 405.72-10.68L405.72-10.68L412.68 0L409.12 0L402.72-10.16L393.52-10.16ZM393.52-23.64L393.52-13L402.68-13Q406.92-13 408.52-15.64L408.52-15.64Q409.12-16.64 409.12-18.20L409.12-18.20Q409.12-20.72 407.40-22.18Q405.68-23.64 402.84-23.64L402.84-23.64L393.52-23.64Z M439.96-23.60L423.48-23.60L423.48-14.72L438.20-14.72L438.20-11.80L423.48-11.80L423.48-2.88L439.96-2.88L439.96 0L420.48 0L420.48-26.48L439.96-26.48L439.96-23.60Z M459.88-26.48L471.12 0L467.80 0L464.56-7.68L451.44-7.68L448.20 0L444.88 0L456.12-26.48L459.88-26.48ZM452.60-10.44L463.40-10.44L458.00-23.36L452.60-10.44Z M499.96-26.48L503.44-26.48L503.44 0L500.44 0L500.44-21.92L490.64-9.32L480.68-21.92L480.68 0L477.68 0L477.68-26.48L481.16-26.48L490.64-13.92L499.96-26.48Z M524.20-28L527.20-28L527.20-16.88Q528.28-18.32 529.84-19.32Q531.40-20.32 533.40-20.32Q535.40-20.32 536.84-19.76Q538.28-19.20 539.36-18.08L539.36-18.08Q541.84-15.64 541.84-11.64L541.84-11.64L541.84 0L538.84 0L538.84-11.56Q538.84-14.32 537.28-15.96Q535.72-17.60 533.24-17.60L533.24-17.60Q530.72-17.60 528.96-15.92L528.96-15.92Q527.20-14.20 527.20-11.52L527.20-11.52L527.20 0L524.20 0L524.20-28Z M558.72-20.32L558.72-20.32Q563.20-20.32 566.00-17.32L566.00-17.32Q568.64-14.44 568.64-10L568.64-10Q568.64-5.56 566.00-2.68L566.00-2.68Q563.20 0.32 558.72 0.32L558.72 0.32Q554.24 0.32 551.44-2.68L551.44-2.68Q548.80-5.56 548.80-10L548.80-10Q548.80-14.44 551.44-17.32L551.44-17.32Q554.24-20.32 558.72-20.32ZM558.72-2.40L558.72-2.40Q561.96-2.40 563.84-4.64L563.84-4.64Q565.64-6.76 565.64-10L565.64-10Q565.64-13.24 563.84-15.36L563.84-15.36Q561.96-17.60 558.72-17.60L558.72-17.60Q555.48-17.60 553.60-15.36L553.60-15.36Q551.80-13.24 551.80-10L551.80-10Q551.80-6.76 553.60-4.64L553.60-4.64Q555.48-2.40 558.72-2.40Z M578.80-20L578.80-16.96Q580.80-20.32 584.88-20.32L584.88-20.32Q586.88-20.32 588.58-19.26Q590.28-18.20 591.24-16.28L591.24-16.28Q592.60-18.80 595.48-19.88L595.48-19.88Q596.64-20.32 598.10-20.32Q599.56-20.32 600.90-19.74Q602.24-19.16 603.28-18.08L603.28-18.08Q605.52-15.68 605.52-12.08L605.52-12.08L605.52 0L602.52 0L602.52-12Q602.52-14.48 601.12-16.08L601.12-16.08Q599.72-17.60 597.56-17.60L597.56-17.60Q595.28-17.60 593.76-16.12L593.76-16.12Q592.16-14.60 592.16-11.96L592.16-11.96L592.16 0L589.16 0L589.16-12Q589.16-14.48 587.76-16.08L587.76-16.08Q586.36-17.60 584.20-17.60L584.20-17.60Q581.92-17.60 580.40-16.12L580.40-16.12Q578.80-14.60 578.80-11.96L578.80-11.96L578.80 0L575.80 0L575.80-20L578.80-20Z M622.64-2.40L622.64-2.40Q626.68-2.40 628.44-5.76L628.44-5.76L631.72-5.76Q630.68-3.04 628.42-1.36Q626.16 0.32 622.60 0.32L622.60 0.32Q618.08 0.32 615.24-2.68L615.24-2.68Q612.48-5.60 612.48-10L612.48-10Q612.48-14.44 615.12-17.32L615.12-17.32Q617.92-20.32 622.40-20.32L622.40-20.32Q626.88-20.32 629.68-17.32L629.68-17.32Q632.32-14.44 632.32-10L632.32-10L632.32-8.80L615.56-8.80Q615.88-6.04 617.76-4.24L617.76-4.24Q619.68-2.40 622.64-2.40ZM622.40-17.60L622.40-17.60Q619.64-17.60 617.76-15.88L617.76-15.88Q616-14.24 615.60-11.60L615.60-11.60L629.20-11.60Q628.80-14.24 627.04-15.88L627.04-15.88Q625.16-17.60 622.40-17.60Z M656.08 0L653.08 0L653.08-17.36L649-17.36L649-20L653.08-20L653.08-27.16L656.08-27.16L656.08-20L660.68-20L660.68-17.36L656.08-17.36L656.08 0Z M675.44-20.32L675.44-20.32Q679.92-20.32 682.72-17.32L682.72-17.32Q685.36-14.44 685.36-10L685.36-10Q685.36-5.56 682.72-2.68L682.72-2.68Q679.92 0.32 675.44 0.32L675.44 0.32Q670.96 0.32 668.16-2.68L668.16-2.68Q665.52-5.56 665.52-10L665.52-10Q665.52-14.44 668.16-17.32L668.16-17.32Q670.96-20.32 675.44-20.32ZM675.44-2.40L675.44-2.40Q678.68-2.40 680.56-4.64L680.56-4.64Q682.36-6.76 682.36-10L682.36-10Q682.36-13.24 680.56-15.36L680.56-15.36Q678.68-17.60 675.44-17.60L675.44-17.60Q672.20-17.60 670.32-15.36L670.32-15.36Q668.52-13.24 668.52-10L668.52-10Q668.52-6.76 670.32-4.64L670.32-4.64Q672.20-2.40 675.44-2.40Z M708.12 0L708.12-3.20Q705.72 0.32 700.96 0.32L700.96 0.32Q696.64 0.32 693.92-2.68L693.92-2.68Q691.28-5.64 691.28-10L691.28-10Q691.28-14.36 693.92-17.32L693.92-17.32Q696.64-20.32 701.16-20.32Q705.68-20.32 708.12-16.76L708.12-16.76L708.12-28L711.12-28L711.12 0L708.12 0ZM701.36-2.40L701.36-2.40Q704.60-2.40 706.48-4.64L706.48-4.64Q708.28-6.76 708.28-10L708.28-10Q708.28-13.24 706.48-15.36L706.48-15.36Q704.60-17.60 701.36-17.60L701.36-17.60Q698.16-17.60 696.16-15.36L696.16-15.36Q694.28-13.24 694.28-10L694.28-10Q694.28-6.76 696.16-4.64L696.16-4.64Q698.16-2.40 701.36-2.40Z M735.12 0L735.12-3.20Q732.72 0.32 727.96 0.32L727.96 0.32Q723.64 0.32 720.92-2.68L720.92-2.68Q718.28-5.64 718.28-10L718.28-10Q718.28-14.36 720.92-17.32L720.92-17.32Q723.64-20.32 728.16-20.32Q732.68-20.32 735.12-16.76L735.12-16.76L735.12-20L738.12-20L738.12 0L735.12 0ZM728.36-2.40L728.36-2.40Q731.60-2.40 733.48-4.64L733.48-4.64Q735.28-6.76 735.28-10L735.28-10Q735.28-13.24 733.48-15.36L733.48-15.36Q731.60-17.60 728.36-17.60L728.36-17.60Q725.16-17.60 723.16-15.36L723.16-15.36Q721.28-13.24 721.28-10L721.28-10Q721.28-6.76 723.16-4.64L723.16-4.64Q725.16-2.40 728.36-2.40Z M763.68-20L751.84 7.92L748.60 7.92L752.24-0.28L744.08-20L747.40-20L753.84-3.60L760.40-20L763.68-20Z M769.48-4.08L773.36-4.08L773.36 0L769.48 0L769.48-4.08ZM772.52-7.32L770.32-7.32L769.56-26.48L773.28-26.48L772.52-7.32Z"/></g>
</svg>
</g><g opacity="1" transform="rotate(0 204.4772 775.5802)">
<svg width="237.2011" height="120" x="204.4772" y="775.5802" version="1.1" preserveAspectRatio="none" viewBox="1.32 -27.44 54.24 27.44">
  <g transform="matrix(1 0 0 1 0 0)" class="companyName"><path id="id-D6z1nYkh2" d="M1.68 0L1.48-4.08L4.40-4.88L4.40-20.12Q4.40-21.16 4.24-21.50Q4.08-21.84 3.40-22.12L3.40-22.12L1.32-23.28L1.56-26.52Q4.60-27 7.32-27.22Q10.04-27.44 13.16-27.44L13.16-27.44Q17.48-27.44 20.10-26.52Q22.72-25.60 23.94-23.64Q25.16-21.68 25.16-18.44L25.16-18.44Q25.16-14.24 22.14-11.84Q19.12-9.44 13.88-9.44L13.88-9.44L11.68-9.52L11.68-6.48Q11.68-5.52 11.82-5.24Q11.96-4.96 12.52-4.68L12.52-4.68L14.96-3.24L14.80 0L1.68 0ZM14.24-13.88Q16.40-13.88 17.40-14.32L17.40-14.32Q17.84-16.28 17.84-18.44L17.84-18.44Q17.84-20.80 16.94-21.80Q16.04-22.80 14.04-22.80L14.04-22.80Q13.36-22.80 11.68-22.64L11.68-22.64L11.68-14.12Q12.76-13.88 14.24-13.88L14.24-13.88Z M27.16 0L26.96-4.20L29.48-4.88L29.48-20.20Q29.48-21.24 29.34-21.58Q29.20-21.92 28.56-22.20L28.56-22.20L26.88-23.16L27-26.96L39.48-26.96L39.68-22.88L36.72-22.08L36.72-16.24L45.84-16.48L45.84-20.20Q45.84-21.24 45.68-21.58Q45.52-21.92 44.84-22.20L44.84-22.20L42.88-23.32L43.08-26.96L55.36-26.96L55.52-22.76L53.08-22.08L53.08-6.48Q53.08-5.52 53.22-5.24Q53.36-4.96 53.92-4.68L53.92-4.68L55.56-3.72L55.40 0L43.24 0L43.04-4.12L45.84-4.88L45.84-10.84L36.72-11.24L36.72-6.48Q36.72-5.52 36.86-5.24Q37-4.96 37.60-4.68L37.60-4.68L39.72-3.44L39.56 0L27.16 0Z"/></g>
</svg>
</g><g opacity="1" transform="rotate(0 204.4772 534.9425)">
<svg width="237.2011" height="200.6377" x="204.4772" y="534.9425" version="1.1" preserveAspectRatio="none" viewBox="5.808000087738037 12.620000839233398 88.38400268554688 74.76000213623047">
  <g transform="matrix(1 0 0 1 0 0)" class="icon1"><g><circle fill-rule="evenodd" clip-rule="evenodd" cx="10.111" cy="63.715" r="4.303"></circle><circle fill-rule="evenodd" clip-rule="evenodd" cx="20.15" cy="63.715" r="4.303"></circle><circle fill-rule="evenodd" clip-rule="evenodd" cx="30.19" cy="63.715" r="4.303"></circle><circle fill-rule="evenodd" clip-rule="evenodd" cx="40.229" cy="63.715" r="4.303"></circle><circle fill-rule="evenodd" clip-rule="evenodd" cx="50.09" cy="63.715" r="4.303"></circle><circle fill-rule="evenodd" clip-rule="evenodd" cx="60.129" cy="63.715" r="4.303"></circle><circle fill-rule="evenodd" clip-rule="evenodd" cx="70.169" cy="63.715" r="4.303"></circle><circle fill-rule="evenodd" clip-rule="evenodd" cx="80.208" cy="63.715" r="4.303"></circle><circle fill-rule="evenodd" clip-rule="evenodd" cx="89.889" cy="63.715" r="4.303"></circle><circle fill-rule="evenodd" clip-rule="evenodd" cx="10.111" cy="73.396" r="4.303"></circle><circle fill-rule="evenodd" clip-rule="evenodd" cx="20.15" cy="73.396" r="4.303"></circle><circle fill-rule="evenodd" clip-rule="evenodd" cx="30.19" cy="73.396" r="4.303"></circle><circle fill-rule="evenodd" clip-rule="evenodd" cx="40.229" cy="73.396" r="4.303"></circle><circle fill-rule="evenodd" clip-rule="evenodd" cx="50.09" cy="73.396" r="4.303"></circle><circle fill-rule="evenodd" clip-rule="evenodd" cx="60.129" cy="73.396" r="4.303"></circle><circle fill-rule="evenodd" clip-rule="evenodd" cx="70.169" cy="73.396" r="4.303"></circle><circle fill-rule="evenodd" clip-rule="evenodd" cx="80.208" cy="73.396" r="4.303"></circle><circle fill-rule="evenodd" clip-rule="evenodd" cx="89.889" cy="73.396" r="4.303"></circle><circle fill-rule="evenodd" clip-rule="evenodd" cx="10.111" cy="83.077" r="4.303"></circle><circle fill-rule="evenodd" clip-rule="evenodd" cx="20.15" cy="83.077" r="4.303"></circle><circle fill-rule="evenodd" clip-rule="evenodd" cx="30.19" cy="83.077" r="4.303"></circle><circle fill-rule="evenodd" clip-rule="evenodd" cx="40.229" cy="83.077" r="4.303"></circle><circle fill-rule="evenodd" clip-rule="evenodd" cx="50.09" cy="83.077" r="4.303"></circle><circle fill-rule="evenodd" clip-rule="evenodd" cx="60.129" cy="83.077" r="4.303"></circle><circle fill-rule="evenodd" clip-rule="evenodd" cx="70.169" cy="83.077" r="4.303"></circle><circle fill-rule="evenodd" clip-rule="evenodd" cx="80.208" cy="83.077" r="4.303"></circle><circle fill-rule="evenodd" clip-rule="evenodd" cx="89.889" cy="83.077" r="4.303"></circle><circle fill-rule="evenodd" clip-rule="evenodd" cx="10.111" cy="53.969" r="3.406"></circle><circle fill-rule="evenodd" clip-rule="evenodd" cx="30.19" cy="53.969" r="3.406"></circle><circle fill-rule="evenodd" clip-rule="evenodd" cx="40.229" cy="53.969" r="3.406"></circle><circle fill-rule="evenodd" clip-rule="evenodd" cx="50.09" cy="53.969" r="3.406"></circle><circle fill-rule="evenodd" clip-rule="evenodd" cx="60.129" cy="53.969" r="3.406"></circle><circle fill-rule="evenodd" clip-rule="evenodd" cx="70.169" cy="53.969" r="3.406"></circle><circle fill-rule="evenodd" clip-rule="evenodd" cx="80.208" cy="53.969" r="3.406"></circle><circle fill-rule="evenodd" clip-rule="evenodd" cx="89.889" cy="53.969" r="3.406"></circle><circle fill-rule="evenodd" clip-rule="evenodd" cx="20.15" cy="53.969" r="3.406"></circle><circle fill-rule="evenodd" clip-rule="evenodd" cx="30.19" cy="44.174" r="3.406"></circle><circle fill-rule="evenodd" clip-rule="evenodd" cx="40.229" cy="44.174" r="3.406"></circle><circle fill-rule="evenodd" clip-rule="evenodd" cx="50.09" cy="44.174" r="3.406"></circle><circle fill-rule="evenodd" clip-rule="evenodd" cx="60.129" cy="44.174" r="3.406"></circle><circle fill-rule="evenodd" clip-rule="evenodd" cx="70.169" cy="44.174" r="3.406"></circle><circle fill-rule="evenodd" clip-rule="evenodd" cx="80.208" cy="44.174" r="3.406"></circle><circle fill-rule="evenodd" clip-rule="evenodd" cx="20.15" cy="44.174" r="3.406"></circle><circle fill-rule="evenodd" clip-rule="evenodd" cx="30.19" cy="34.403" r="2.6"></circle><circle fill-rule="evenodd" clip-rule="evenodd" cx="40.229" cy="34.403" r="2.6"></circle><circle fill-rule="evenodd" clip-rule="evenodd" cx="50.09" cy="34.403" r="2.6"></circle><circle fill-rule="evenodd" clip-rule="evenodd" cx="60.129" cy="34.403" r="2.6"></circle><circle fill-rule="evenodd" clip-rule="evenodd" cx="70.169" cy="34.403" r="2.6"></circle><circle fill-rule="evenodd" clip-rule="evenodd" cx="40.229" cy="24.363" r="2.6"></circle><circle fill-rule="evenodd" clip-rule="evenodd" cx="50.09" cy="24.363" r="2.6"></circle><circle fill-rule="evenodd" clip-rule="evenodd" cx="60.129" cy="24.363" r="2.6"></circle><circle fill-rule="evenodd" clip-rule="evenodd" cx="50.09" cy="15.22" r="2.6"></circle></g></g>
</svg>
</g></svg></svg>